<svg xmlns="http://www.w3.org/2000/svg" xmlns:xlink="http://www.w3.org/1999/xlink" width="40" zoomAndPan="magnify" viewBox="0 0 30 30.000001" height="40" preserveAspectRatio="xMidYMid meet" version="1.0"><defs><clipPath id="d2f5e71f36"><path d="M 0.484375 0 L 29.515625 0 L 29.515625 29.03125 L 0.484375 29.03125 Z M 0.484375 0 " clip-rule="nonzero"/></clipPath><clipPath id="7bc274aaa9"><path d="M 5.332031 0.703125 L 24.929688 0.703125 L 24.929688 28.285156 L 5.332031 28.285156 Z M 5.332031 0.703125 " clip-rule="nonzero"/></clipPath><clipPath id="f7e375b59d"><path d="M 15 0.703125 L 24.929688 0.703125 L 24.929688 28 L 15 28 Z M 15 0.703125 " clip-rule="nonzero"/></clipPath><clipPath id="505d28b4e6"><path d="M 5.332031 0.703125 L 15 0.703125 L 15 28 L 5.332031 28 Z M 5.332031 0.703125 " clip-rule="nonzero"/></clipPath><clipPath id="5eafa0786f"><path d="M 15 9 L 24.929688 9 L 24.929688 14 L 15 14 Z M 15 9 " clip-rule="nonzero"/></clipPath><clipPath id="86214d62fa"><path d="M 5.332031 9 L 15 9 L 15 14 L 5.332031 14 Z M 5.332031 9 " clip-rule="nonzero"/></clipPath><clipPath id="8b52a46d41"><path d="M 12 27 L 18 27 L 18 28.285156 L 12 28.285156 Z M 12 27 " clip-rule="nonzero"/></clipPath><clipPath id="bd0ceddf8a"><path d="M 14 28 L 16 28 L 16 28.285156 L 14 28.285156 Z M 14 28 " clip-rule="nonzero"/></clipPath><clipPath id="5b9543e863"><path d="M 14 27 L 16 27 L 16 28.285156 L 14 28.285156 Z M 14 27 " clip-rule="nonzero"/></clipPath></defs><g clip-path="url(#d2f5e71f36)"><path fill="#ffffff" d="M 0.484375 0 L 29.515625 0 L 29.515625 36.289062 L 0.484375 36.289062 Z M 0.484375 0 " fill-opacity="1" fill-rule="nonzero"/><path fill="#ffffff" d="M 0.484375 0 L 29.515625 0 L 29.515625 29.03125 L 0.484375 29.03125 Z M 0.484375 0 " fill-opacity="1" fill-rule="nonzero"/><path fill="#000000" d="M 0.484375 0 L 29.515625 0 L 29.515625 29.03125 L 0.484375 29.03125 Z M 0.484375 0 " fill-opacity="1" fill-rule="nonzero"/></g><g clip-path="url(#7bc274aaa9)"><path fill="#62cce5" d="M 24.925781 5.460938 L 24.746094 13.738281 C 24.746094 13.738281 24.496094 17.683594 24.460938 17.789062 C 24.425781 17.898438 20.671875 25.402344 20.671875 25.402344 L 17.3125 27.554688 L 16.785156 27.894531 L 16.273438 28.21875 L 13.988281 28.21875 L 12.9375 27.546875 L 9.589844 25.402344 C 9.589844 25.402344 5.835938 17.898438 5.800781 17.789062 C 5.765625 17.683594 5.515625 13.738281 5.515625 13.738281 L 5.335938 5.460938 L 9.523438 0.738281 L 9.519531 0.703125 L 20.742188 0.703125 L 20.738281 0.738281 L 24.925781 5.460938 " fill-opacity="1" fill-rule="nonzero"/></g><path fill="#4a9bdb" d="M 15.144531 23.882812 L 12.648438 23.515625 L 15.152344 24.925781 L 17.644531 23.515625 L 15.144531 23.882812 " fill-opacity="1" fill-rule="nonzero"/><path fill="#4a9bdb" d="M 16.101562 20.4375 L 19.148438 21.9375 L 16.441406 21.738281 Z M 16.101562 20.4375 " fill-opacity="1" fill-rule="nonzero"/><path fill="#4a9bdb" d="M 14.191406 20.4375 L 11.109375 21.9375 L 13.816406 21.738281 Z M 14.191406 20.4375 " fill-opacity="1" fill-rule="nonzero"/><path fill="#4a9bdb" d="M 15.972656 14.410156 C 15.972656 14.445312 16.324219 18.496094 16.324219 18.496094 L 17.824219 18.191406 L 16.835938 17.191406 L 15.972656 14.410156 " fill-opacity="1" fill-rule="nonzero"/><path fill="#4a9bdb" d="M 14.316406 14.410156 C 14.316406 14.445312 13.964844 18.496094 13.964844 18.496094 L 12.464844 18.191406 L 13.453125 17.191406 L 14.316406 14.410156 " fill-opacity="1" fill-rule="nonzero"/><path fill="#4a9bdb" d="M 15.125 20.363281 L 17.4375 18.988281 C 17.4375 18.988281 17.835938 18.519531 17.824219 18.191406 L 15.132812 18.929688 L 15.125 20.363281 " fill-opacity="1" fill-rule="nonzero"/><path fill="#4a9bdb" d="M 15.132812 20.363281 L 12.820312 18.988281 C 12.820312 18.988281 12.421875 18.519531 12.433594 18.191406 L 15.125 18.929688 L 15.132812 20.363281 " fill-opacity="1" fill-rule="nonzero"/><g clip-path="url(#f7e375b59d)"><path fill="#4a9bdb" d="M 24.925781 5.460938 L 24.746094 13.738281 C 24.746094 13.738281 24.496094 17.683594 24.460938 17.789062 C 24.425781 17.898438 20.671875 25.402344 20.671875 25.402344 L 17.3125 27.554688 L 16.785156 27.894531 L 16.8125 27.128906 L 20.851562 23.464844 L 21.527344 19.183594 L 15.683594 11.976562 L 18.242188 11.660156 L 21.074219 11.265625 L 21.925781 4.796875 L 20.238281 1.160156 C 20.238281 1.160156 20.421875 0.925781 20.585938 0.703125 L 20.742188 0.703125 L 20.738281 0.738281 L 24.925781 5.460938 " fill-opacity="1" fill-rule="nonzero"/></g><g clip-path="url(#505d28b4e6)"><path fill="#4a9bdb" d="M 5.339844 5.464844 L 5.515625 13.746094 C 5.515625 13.746094 5.769531 17.691406 5.804688 17.796875 C 5.839844 17.902344 9.59375 25.40625 9.59375 25.40625 L 12.949219 27.558594 L 13.480469 27.898438 L 13.453125 27.132812 L 9.414062 23.46875 L 8.738281 19.1875 L 14.582031 11.980469 L 12.023438 11.667969 L 9.191406 11.273438 L 8.339844 4.800781 L 10.027344 1.167969 C 10.027344 1.167969 9.84375 0.929688 9.675781 0.710938 L 9.519531 0.710938 L 9.527344 0.742188 L 5.339844 5.464844 " fill-opacity="1" fill-rule="nonzero"/></g><path fill="#8edaf1" d="M 15.132812 20.578125 L 15.707031 20.363281 L 16.074219 21.390625 L 15.132812 21.722656 L 15.132812 20.578125 " fill-opacity="1" fill-rule="nonzero"/><path fill="#8edaf1" d="M 15.132812 20.578125 L 14.554688 20.363281 L 14.191406 21.390625 L 15.132812 21.722656 L 15.132812 20.578125 " fill-opacity="1" fill-rule="nonzero"/><path fill="#8edaf1" d="M 14.878906 2.5 L 8.316406 4.636719 L 8.625 8.773438 L 14.011719 10.558594 L 15.230469 11.070312 L 16.355469 10.519531 L 21.628906 8.773438 L 21.9375 4.636719 L 14.878906 2.5 " fill-opacity="1" fill-rule="nonzero"/><path fill="#8edaf1" d="M 12.144531 22.054688 L 11.878906 22.269531 L 13.378906 22.792969 L 15.132812 23.128906 L 16.863281 22.777344 L 18.382812 22.269531 L 17.140625 21.882812 L 15.757812 21.882812 L 12.144531 22.054688 " fill-opacity="1" fill-rule="nonzero"/><path fill="#8edaf1" d="M 16.441406 18.285156 L 15.683594 12.03125 L 14.636719 12.03125 L 13.820312 18.285156 L 14.953125 19.183594 L 16.441406 18.285156 " fill-opacity="1" fill-rule="nonzero"/><g clip-path="url(#5eafa0786f)"><path fill="#2c66a6" d="M 16.847656 10.070312 L 16.566406 10.070312 L 15.683594 11.976562 L 19.777344 13.386719 C 19.777344 13.386719 20.792969 13.617188 21.953125 13.03125 L 23.949219 13.085938 L 24.789062 11.75 L 23.316406 9.917969 L 21.183594 9.101562 L 16.847656 10.070312 " fill-opacity="1" fill-rule="nonzero"/></g><g clip-path="url(#86214d62fa)"><path fill="#2c66a6" d="M 13.476562 10.070312 L 13.757812 10.070312 L 14.636719 11.976562 L 10.542969 13.386719 C 10.542969 13.386719 9.53125 13.617188 8.367188 13.03125 L 6.375 13.085938 L 5.535156 11.75 L 7.003906 9.917969 L 9.136719 9.101562 L 13.476562 10.070312 " fill-opacity="1" fill-rule="nonzero"/></g><path fill="#16344f" d="M 22.460938 12.824219 C 22.460938 12.824219 21.566406 13.46875 20.351562 13.46875 C 19.136719 13.46875 18.382812 12.613281 18.382812 12.613281 C 18.636719 12.417969 18.980469 12.289062 19.347656 12.199219 C 19.878906 12.074219 20.464844 12.035156 20.910156 12.03125 C 21.335938 12.023438 21.636719 12.046875 21.636719 12.046875 L 22.460938 12.824219 " fill-opacity="1" fill-rule="nonzero"/><path fill="#16344f" d="M 7.855469 12.824219 C 7.855469 12.824219 8.75 13.46875 9.964844 13.46875 C 11.179688 13.46875 11.929688 12.613281 11.929688 12.613281 C 11.679688 12.417969 11.335938 12.289062 10.96875 12.199219 C 10.4375 12.074219 9.851562 12.035156 9.40625 12.03125 C 8.980469 12.023438 8.679688 12.046875 8.679688 12.046875 L 7.855469 12.824219 " fill-opacity="1" fill-rule="nonzero"/><path fill="#16344f" d="M 16.441406 18.285156 L 15.132812 18.730469 L 13.820312 18.285156 L 12.4375 18.191406 C 12.4375 18.660156 12.960938 18.847656 12.960938 18.847656 L 13.890625 19.035156 L 15.132812 19.671875 L 16.371094 19.035156 L 17.300781 18.847656 C 17.300781 18.847656 17.824219 18.660156 17.824219 18.191406 L 16.441406 18.285156 " fill-opacity="1" fill-rule="nonzero"/><path fill="#16344f" d="M 16.761719 21.371094 L 16.023438 21.371094 L 15.132812 21.679688 L 15.132812 22.394531 L 15.988281 22.148438 L 18.382812 22.269531 L 19.148438 21.9375 L 16.761719 21.371094 " fill-opacity="1" fill-rule="nonzero"/><path fill="#16344f" d="M 13.5 21.371094 L 11.113281 21.9375 L 11.878906 22.269531 L 14.273438 22.148438 L 15.132812 22.394531 L 15.132812 21.679688 L 14.238281 21.371094 L 13.5 21.371094 " fill-opacity="1" fill-rule="nonzero"/><path fill="#2c66a6" d="M 13.867188 23.699219 L 15.132812 23.828125 L 16.453125 23.699219 L 15.160156 24.308594 L 13.867188 23.699219 " fill-opacity="1" fill-rule="nonzero"/><path fill="#16344f" d="M 16.417969 10.390625 L 17.667969 10.675781 L 21.65625 9.566406 L 23.53125 10.675781 L 23.316406 9.933594 L 21.691406 8.773438 L 16.738281 9.722656 L 16.417969 10.390625 " fill-opacity="1" fill-rule="nonzero"/><path fill="#16344f" d="M 13.898438 10.390625 L 12.648438 10.675781 L 8.660156 9.566406 L 6.785156 10.675781 L 6.996094 9.933594 L 8.625 8.773438 L 13.574219 9.722656 L 13.898438 10.390625 " fill-opacity="1" fill-rule="nonzero"/><path fill="#16344f" d="M 23.53125 16.3125 L 21.566406 18.929688 L 21.074219 22.054688 Z M 23.53125 16.3125 " fill-opacity="1" fill-rule="nonzero"/><path fill="#16344f" d="M 6.785156 16.3125 L 8.75 18.929688 L 9.242188 22.054688 Z M 6.785156 16.3125 " fill-opacity="1" fill-rule="nonzero"/><g clip-path="url(#8b52a46d41)"><path fill="#2c66a6" d="M 16.8125 27.128906 L 15.132812 27.410156 L 13.414062 27.128906 L 12.9375 27.546875 L 13.988281 28.21875 L 16.273438 28.21875 L 17.3125 27.554688 L 16.8125 27.128906 " fill-opacity="1" fill-rule="nonzero"/></g><path fill="#62cce5" d="M 17.4375 13.429688 L 20.039062 16.121094 L 23.792969 15.148438 L 22.546875 14.292969 L 17.4375 13.429688 " fill-opacity="1" fill-rule="nonzero"/><path fill="#62cce5" d="M 12.984375 13.429688 L 10.382812 16.121094 L 6.625 15.148438 L 7.871094 14.292969 L 12.984375 13.429688 " fill-opacity="1" fill-rule="nonzero"/><path fill="#8edaf1" d="M 18.738281 14.777344 L 20.039062 16.121094 L 22.460938 15.492188 L 20.421875 15.101562 L 18.738281 14.777344 " fill-opacity="1" fill-rule="nonzero"/><path fill="#8edaf1" d="M 11.664062 14.777344 L 10.367188 16.121094 L 7.941406 15.492188 L 9.980469 15.101562 L 11.664062 14.777344 " fill-opacity="1" fill-rule="nonzero"/><path fill="#ccebbb" d="M 22.226562 1.953125 C 22.105469 1.953125 21.996094 1.996094 21.914062 2.0625 L 22.011719 2.175781 C 22.070312 2.128906 22.144531 2.105469 22.226562 2.105469 C 22.417969 2.105469 22.574219 2.257812 22.574219 2.449219 C 22.574219 2.542969 22.535156 2.628906 22.46875 2.691406 L 22.570312 2.804688 C 22.667969 2.714844 22.726562 2.589844 22.726562 2.449219 C 22.726562 2.175781 22.5 1.953125 22.226562 1.953125 " fill-opacity="1" fill-rule="nonzero"/><path fill="#5bb4e0" d="M 21.914062 2.0625 C 21.796875 2.152344 21.722656 2.292969 21.722656 2.449219 C 21.722656 2.71875 21.949219 2.941406 22.226562 2.941406 C 22.359375 2.941406 22.480469 2.890625 22.570312 2.804688 L 22.46875 2.691406 C 22.40625 2.753906 22.320312 2.792969 22.226562 2.792969 C 22.03125 2.792969 21.875 2.636719 21.875 2.449219 C 21.875 2.335938 21.929688 2.238281 22.011719 2.175781 L 21.914062 2.0625 " fill-opacity="1" fill-rule="nonzero"/><path fill="#9ad982" d="M 22.226562 2.105469 C 22.144531 2.105469 22.070312 2.128906 22.011719 2.175781 L 22.105469 2.28125 C 22.140625 2.257812 22.179688 2.242188 22.226562 2.242188 C 22.339844 2.242188 22.433594 2.335938 22.433594 2.449219 C 22.433594 2.5 22.410156 2.550781 22.378906 2.585938 L 22.46875 2.691406 C 22.535156 2.628906 22.574219 2.542969 22.574219 2.449219 C 22.574219 2.257812 22.417969 2.105469 22.226562 2.105469 " fill-opacity="1" fill-rule="nonzero"/><path fill="#6bcfe4" d="M 22.011719 2.175781 C 21.929688 2.238281 21.875 2.335938 21.875 2.449219 C 21.875 2.636719 22.03125 2.792969 22.226562 2.792969 C 22.320312 2.792969 22.40625 2.753906 22.46875 2.691406 L 22.378906 2.585938 C 22.339844 2.625 22.285156 2.652344 22.226562 2.652344 C 22.109375 2.652344 22.015625 2.558594 22.015625 2.449219 C 22.015625 2.378906 22.050781 2.316406 22.105469 2.28125 L 22.011719 2.175781 " fill-opacity="1" fill-rule="nonzero"/><path fill="#ebf7e3" d="M 22.226562 2.242188 C 22.179688 2.242188 22.140625 2.257812 22.105469 2.28125 L 22.378906 2.585938 C 22.410156 2.550781 22.433594 2.5 22.433594 2.449219 C 22.433594 2.335938 22.339844 2.242188 22.226562 2.242188 " fill-opacity="1" fill-rule="nonzero"/><path fill="#e2f6fd" d="M 22.105469 2.28125 C 22.050781 2.316406 22.015625 2.378906 22.015625 2.449219 C 22.015625 2.558594 22.109375 2.652344 22.226562 2.652344 C 22.285156 2.652344 22.339844 2.625 22.378906 2.585938 L 22.105469 2.28125 " fill-opacity="1" fill-rule="nonzero"/><path fill="#73d1de" d="M 10.425781 2.105469 C 10.148438 2.105469 9.921875 2.324219 9.921875 2.597656 C 9.921875 2.871094 10.148438 3.089844 10.425781 3.089844 C 10.703125 3.089844 10.925781 2.871094 10.925781 2.597656 C 10.925781 2.324219 10.703125 2.105469 10.425781 2.105469 M 10.425781 2.941406 C 10.230469 2.941406 10.074219 2.789062 10.074219 2.597656 C 10.074219 2.410156 10.230469 2.253906 10.425781 2.253906 C 10.617188 2.253906 10.773438 2.410156 10.773438 2.597656 C 10.773438 2.789062 10.617188 2.941406 10.425781 2.941406 " fill-opacity="1" fill-rule="nonzero"/><path fill="#83d5d4" d="M 10.425781 2.253906 C 10.230469 2.253906 10.074219 2.410156 10.074219 2.597656 C 10.074219 2.789062 10.230469 2.941406 10.425781 2.941406 C 10.617188 2.941406 10.773438 2.789062 10.773438 2.597656 C 10.773438 2.410156 10.617188 2.253906 10.425781 2.253906 M 10.425781 2.800781 C 10.308594 2.800781 10.21875 2.710938 10.21875 2.597656 C 10.21875 2.484375 10.308594 2.394531 10.425781 2.394531 C 10.539062 2.394531 10.632812 2.484375 10.632812 2.597656 C 10.632812 2.710938 10.539062 2.800781 10.425781 2.800781 " fill-opacity="1" fill-rule="nonzero"/><path fill="#e7f7fa" d="M 10.425781 2.394531 C 10.308594 2.394531 10.21875 2.484375 10.21875 2.597656 C 10.21875 2.710938 10.308594 2.800781 10.425781 2.800781 C 10.539062 2.800781 10.632812 2.710938 10.632812 2.597656 C 10.632812 2.484375 10.539062 2.394531 10.425781 2.394531 " fill-opacity="1" fill-rule="nonzero"/><path fill="#3891ba" d="M 20.421875 11.078125 C 20.144531 11.078125 19.921875 11.300781 19.921875 11.570312 C 19.921875 11.8125 20.09375 12.011719 20.324219 12.054688 C 20.410156 12.050781 20.496094 12.042969 20.582031 12.039062 C 20.78125 11.976562 20.921875 11.789062 20.921875 11.570312 C 20.921875 11.300781 20.699219 11.078125 20.421875 11.078125 M 20.421875 11.914062 C 20.230469 11.914062 20.074219 11.761719 20.074219 11.570312 C 20.074219 11.382812 20.230469 11.230469 20.421875 11.230469 C 20.613281 11.230469 20.769531 11.382812 20.769531 11.570312 C 20.769531 11.761719 20.613281 11.914062 20.421875 11.914062 " fill-opacity="1" fill-rule="nonzero"/><path fill="#236c75" d="M 20.582031 12.039062 C 20.496094 12.042969 20.410156 12.050781 20.324219 12.054688 C 20.355469 12.0625 20.390625 12.066406 20.421875 12.066406 C 20.476562 12.066406 20.53125 12.058594 20.582031 12.039062 " fill-opacity="1" fill-rule="nonzero"/><path fill="#46c2ca" d="M 20.421875 11.230469 C 20.230469 11.230469 20.074219 11.382812 20.074219 11.570312 C 20.074219 11.761719 20.230469 11.914062 20.421875 11.914062 C 20.613281 11.914062 20.769531 11.761719 20.769531 11.570312 C 20.769531 11.382812 20.613281 11.230469 20.421875 11.230469 M 20.421875 11.777344 C 20.308594 11.777344 20.214844 11.683594 20.214844 11.570312 C 20.214844 11.460938 20.308594 11.367188 20.421875 11.367188 C 20.535156 11.367188 20.628906 11.460938 20.628906 11.570312 C 20.628906 11.683594 20.535156 11.777344 20.421875 11.777344 " fill-opacity="1" fill-rule="nonzero"/><path fill="#dbf3f5" d="M 20.421875 11.367188 C 20.308594 11.367188 20.214844 11.460938 20.214844 11.570312 C 20.214844 11.683594 20.308594 11.777344 20.421875 11.777344 C 20.535156 11.777344 20.628906 11.683594 20.628906 11.570312 C 20.628906 11.460938 20.535156 11.367188 20.421875 11.367188 " fill-opacity="1" fill-rule="nonzero"/><path fill="#5bb4e0" d="M 21.554688 16.027344 C 21.277344 16.027344 21.050781 16.25 21.050781 16.523438 C 21.050781 16.792969 21.277344 17.015625 21.554688 17.015625 C 21.828125 17.015625 22.054688 16.792969 22.054688 16.523438 C 22.054688 16.25 21.828125 16.027344 21.554688 16.027344 M 21.554688 16.863281 C 21.359375 16.863281 21.203125 16.710938 21.203125 16.523438 C 21.203125 16.332031 21.359375 16.179688 21.554688 16.179688 C 21.746094 16.179688 21.902344 16.332031 21.902344 16.523438 C 21.902344 16.710938 21.746094 16.863281 21.554688 16.863281 " fill-opacity="1" fill-rule="nonzero"/><path fill="#6bcfe4" d="M 21.554688 16.179688 C 21.359375 16.179688 21.203125 16.332031 21.203125 16.523438 C 21.203125 16.710938 21.359375 16.863281 21.554688 16.863281 C 21.746094 16.863281 21.902344 16.710938 21.902344 16.523438 C 21.902344 16.332031 21.746094 16.179688 21.554688 16.179688 M 21.554688 16.726562 C 21.4375 16.726562 21.347656 16.632812 21.347656 16.523438 C 21.347656 16.410156 21.4375 16.316406 21.554688 16.316406 C 21.667969 16.316406 21.761719 16.410156 21.761719 16.523438 C 21.761719 16.632812 21.667969 16.726562 21.554688 16.726562 " fill-opacity="1" fill-rule="nonzero"/><path fill="#e2f6fd" d="M 21.554688 16.316406 C 21.4375 16.316406 21.347656 16.410156 21.347656 16.523438 C 21.347656 16.632812 21.4375 16.726562 21.554688 16.726562 C 21.667969 16.726562 21.761719 16.632812 21.761719 16.523438 C 21.761719 16.410156 21.667969 16.316406 21.554688 16.316406 " fill-opacity="1" fill-rule="nonzero"/><path fill="#73d1de" d="M 9.824219 17.847656 L 9.726562 17.96875 C 9.753906 18.019531 9.769531 18.078125 9.769531 18.140625 C 9.769531 18.328125 9.613281 18.484375 9.421875 18.484375 C 9.386719 18.484375 9.355469 18.476562 9.324219 18.46875 L 9.222656 18.59375 C 9.285156 18.617188 9.351562 18.632812 9.421875 18.632812 C 9.699219 18.632812 9.921875 18.410156 9.921875 18.140625 C 9.921875 18.03125 9.886719 17.929688 9.824219 17.847656 " fill-opacity="1" fill-rule="nonzero"/><path fill="#5bb4e0" d="M 9.421875 17.644531 C 9.144531 17.644531 8.921875 17.867188 8.921875 18.140625 C 8.921875 18.339844 9.046875 18.515625 9.222656 18.59375 L 9.324219 18.46875 C 9.179688 18.425781 9.074219 18.292969 9.074219 18.140625 C 9.074219 17.949219 9.230469 17.796875 9.421875 17.796875 C 9.550781 17.796875 9.667969 17.867188 9.726562 17.96875 L 9.824219 17.847656 C 9.734375 17.722656 9.589844 17.644531 9.421875 17.644531 " fill-opacity="1" fill-rule="nonzero"/><path fill="#83d5d4" d="M 9.726562 17.96875 L 9.625 18.09375 C 9.628906 18.109375 9.628906 18.125 9.628906 18.140625 C 9.628906 18.25 9.539062 18.34375 9.421875 18.34375 L 9.324219 18.46875 C 9.355469 18.476562 9.386719 18.484375 9.421875 18.484375 C 9.613281 18.484375 9.769531 18.328125 9.769531 18.140625 C 9.769531 18.078125 9.753906 18.019531 9.726562 17.96875 " fill-opacity="1" fill-rule="nonzero"/><path fill="#6bcfe4" d="M 9.421875 17.796875 C 9.230469 17.796875 9.074219 17.949219 9.074219 18.140625 C 9.074219 18.292969 9.179688 18.425781 9.324219 18.46875 L 9.421875 18.34375 C 9.308594 18.34375 9.214844 18.25 9.214844 18.140625 C 9.214844 18.027344 9.308594 17.933594 9.421875 17.933594 C 9.523438 17.933594 9.605469 18.003906 9.625 18.09375 L 9.726562 17.96875 C 9.667969 17.867188 9.550781 17.796875 9.421875 17.796875 " fill-opacity="1" fill-rule="nonzero"/><path fill="#e7f7fa" d="M 9.625 18.09375 L 9.421875 18.34375 C 9.539062 18.34375 9.628906 18.25 9.628906 18.140625 C 9.628906 18.125 9.628906 18.109375 9.625 18.09375 " fill-opacity="1" fill-rule="nonzero"/><path fill="#e2f6fd" d="M 9.421875 17.933594 C 9.308594 17.933594 9.214844 18.027344 9.214844 18.140625 C 9.214844 18.25 9.308594 18.34375 9.421875 18.34375 L 9.625 18.09375 C 9.605469 18.003906 9.523438 17.933594 9.421875 17.933594 " fill-opacity="1" fill-rule="nonzero"/><path fill="#9adee8" d="M 16.34375 22.167969 C 16.359375 22.203125 16.367188 22.242188 16.367188 22.285156 C 16.367188 22.476562 16.210938 22.628906 16.019531 22.628906 C 15.824219 22.628906 15.667969 22.476562 15.667969 22.285156 C 15.667969 22.269531 15.671875 22.253906 15.671875 22.238281 L 15.515625 22.285156 C 15.515625 22.558594 15.742188 22.777344 16.019531 22.777344 C 16.292969 22.777344 16.519531 22.558594 16.519531 22.285156 C 16.519531 22.246094 16.515625 22.210938 16.507812 22.175781 L 16.34375 22.167969 " fill-opacity="1" fill-rule="nonzero"/><path fill="#236c75" d="M 16.019531 21.792969 C 15.742188 21.792969 15.519531 22.011719 15.515625 22.285156 L 15.671875 22.238281 C 15.695312 22.070312 15.839844 21.941406 16.019531 21.941406 C 16.167969 21.941406 16.296875 22.035156 16.34375 22.167969 L 16.507812 22.175781 C 16.457031 21.957031 16.253906 21.792969 16.019531 21.792969 " fill-opacity="1" fill-rule="nonzero"/><path fill="#a6e1de" d="M 16.179688 22.15625 C 16.207031 22.191406 16.226562 22.238281 16.226562 22.285156 C 16.226562 22.398438 16.132812 22.488281 16.019531 22.488281 C 15.902344 22.488281 15.808594 22.398438 15.808594 22.285156 C 15.808594 22.253906 15.820312 22.21875 15.832031 22.191406 L 15.671875 22.238281 C 15.671875 22.253906 15.667969 22.269531 15.667969 22.285156 C 15.667969 22.476562 15.824219 22.628906 16.019531 22.628906 C 16.210938 22.628906 16.367188 22.476562 16.367188 22.285156 C 16.367188 22.242188 16.359375 22.203125 16.34375 22.167969 L 16.179688 22.15625 " fill-opacity="1" fill-rule="nonzero"/><path fill="#35ba9d" d="M 16.019531 21.941406 C 15.839844 21.941406 15.695312 22.070312 15.671875 22.238281 L 15.832031 22.191406 C 15.867188 22.125 15.9375 22.082031 16.019531 22.082031 C 16.082031 22.082031 16.140625 22.109375 16.179688 22.15625 L 16.34375 22.167969 C 16.296875 22.035156 16.167969 21.941406 16.019531 21.941406 " fill-opacity="1" fill-rule="nonzero"/><path fill="#eef9fd" d="M 15.988281 22.148438 L 15.832031 22.191406 C 15.820312 22.21875 15.808594 22.253906 15.808594 22.285156 C 15.808594 22.398438 15.902344 22.488281 16.019531 22.488281 C 16.132812 22.488281 16.226562 22.398438 16.226562 22.285156 C 16.226562 22.238281 16.207031 22.191406 16.179688 22.15625 L 15.988281 22.148438 " fill-opacity="1" fill-rule="nonzero"/><path fill="#d7f1e7" d="M 16.019531 22.082031 C 15.9375 22.082031 15.867188 22.125 15.832031 22.191406 L 15.988281 22.148438 L 16.179688 22.15625 C 16.140625 22.109375 16.082031 22.082031 16.019531 22.082031 " fill-opacity="1" fill-rule="nonzero"/><path fill="#73d1de" d="M 9.921875 23.582031 C 9.816406 23.582031 9.71875 23.613281 9.636719 23.671875 L 9.753906 23.777344 C 9.804688 23.75 9.863281 23.734375 9.921875 23.734375 C 10.117188 23.734375 10.273438 23.886719 10.273438 24.074219 C 10.273438 24.125 10.261719 24.175781 10.242188 24.21875 L 10.355469 24.324219 C 10.398438 24.25 10.425781 24.167969 10.425781 24.074219 C 10.425781 23.804688 10.199219 23.582031 9.921875 23.582031 " fill-opacity="1" fill-rule="nonzero"/><path fill="#5bb4e0" d="M 9.636719 23.671875 C 9.507812 23.761719 9.421875 23.910156 9.421875 24.074219 C 9.421875 24.347656 9.648438 24.570312 9.921875 24.570312 C 10.109375 24.570312 10.269531 24.472656 10.355469 24.324219 L 10.242188 24.21875 C 10.1875 24.335938 10.0625 24.417969 9.921875 24.417969 C 9.730469 24.417969 9.574219 24.265625 9.574219 24.074219 C 9.574219 23.949219 9.648438 23.835938 9.753906 23.777344 L 9.636719 23.671875 " fill-opacity="1" fill-rule="nonzero"/><path fill="#83d5d4" d="M 9.921875 23.734375 C 9.863281 23.734375 9.804688 23.75 9.753906 23.777344 L 9.867188 23.878906 C 9.886719 23.875 9.902344 23.871094 9.921875 23.871094 C 10.039062 23.871094 10.128906 23.964844 10.128906 24.074219 C 10.128906 24.089844 10.128906 24.101562 10.125 24.117188 L 10.242188 24.21875 C 10.261719 24.175781 10.273438 24.125 10.273438 24.074219 C 10.273438 23.886719 10.117188 23.734375 9.921875 23.734375 " fill-opacity="1" fill-rule="nonzero"/><path fill="#6bcfe4" d="M 9.753906 23.777344 C 9.648438 23.835938 9.574219 23.949219 9.574219 24.074219 C 9.574219 24.265625 9.730469 24.417969 9.921875 24.417969 C 10.0625 24.417969 10.1875 24.335938 10.242188 24.21875 L 10.125 24.117188 C 10.109375 24.210938 10.023438 24.28125 9.921875 24.28125 C 9.808594 24.28125 9.714844 24.1875 9.714844 24.074219 C 9.714844 23.984375 9.78125 23.902344 9.867188 23.878906 L 9.753906 23.777344 " fill-opacity="1" fill-rule="nonzero"/><path fill="#e7f7fa" d="M 9.921875 23.871094 C 9.902344 23.871094 9.886719 23.875 9.867188 23.878906 L 10.125 24.117188 C 10.128906 24.101562 10.128906 24.089844 10.128906 24.074219 C 10.128906 23.964844 10.039062 23.871094 9.921875 23.871094 " fill-opacity="1" fill-rule="nonzero"/><path fill="#e2f6fd" d="M 9.867188 23.878906 C 9.78125 23.902344 9.714844 23.984375 9.714844 24.074219 C 9.714844 24.1875 9.808594 24.28125 9.921875 24.28125 C 10.023438 24.28125 10.109375 24.210938 10.125 24.117188 L 9.867188 23.878906 " fill-opacity="1" fill-rule="nonzero"/><g clip-path="url(#bd0ceddf8a)"><path fill="#ccebbb" d="M 15.261719 28.21875 L 14.769531 28.21875 C 14.839844 28.261719 14.925781 28.285156 15.015625 28.285156 C 15.105469 28.285156 15.191406 28.261719 15.261719 28.21875 " fill-opacity="1" fill-rule="nonzero"/></g><path fill="#73d1de" d="M 15.015625 27.296875 C 14.933594 27.296875 14.855469 27.316406 14.785156 27.351562 L 15.132812 27.410156 L 15.296875 27.382812 C 15.214844 27.328125 15.121094 27.296875 15.015625 27.296875 " fill-opacity="1" fill-rule="nonzero"/><g clip-path="url(#5b9543e863)"><path fill="#3891ba" d="M 14.785156 27.351562 C 14.625 27.433594 14.515625 27.597656 14.515625 27.789062 C 14.515625 27.972656 14.617188 28.132812 14.769531 28.21875 L 15.261719 28.21875 C 15.414062 28.132812 15.515625 27.972656 15.515625 27.789062 C 15.515625 27.621094 15.429688 27.46875 15.296875 27.382812 L 15.132812 27.410156 L 14.785156 27.351562 M 15.015625 28.132812 C 14.824219 28.132812 14.667969 27.980469 14.667969 27.789062 C 14.667969 27.601562 14.824219 27.445312 15.015625 27.445312 C 15.207031 27.445312 15.363281 27.601562 15.363281 27.789062 C 15.363281 27.980469 15.207031 28.132812 15.015625 28.132812 " fill-opacity="1" fill-rule="nonzero"/><path fill="#46c2ca" d="M 15.015625 27.445312 C 14.824219 27.445312 14.667969 27.601562 14.667969 27.789062 C 14.667969 27.980469 14.824219 28.132812 15.015625 28.132812 C 15.207031 28.132812 15.363281 27.980469 15.363281 27.789062 C 15.363281 27.601562 15.207031 27.445312 15.015625 27.445312 M 15.015625 27.996094 C 14.902344 27.996094 14.808594 27.902344 14.808594 27.789062 C 14.808594 27.675781 14.902344 27.585938 15.015625 27.585938 C 15.128906 27.585938 15.222656 27.675781 15.222656 27.789062 C 15.222656 27.902344 15.128906 27.996094 15.015625 27.996094 " fill-opacity="1" fill-rule="nonzero"/></g><path fill="#dbf3f5" d="M 15.015625 27.585938 C 14.902344 27.585938 14.808594 27.675781 14.808594 27.789062 C 14.808594 27.902344 14.902344 27.996094 15.015625 27.996094 C 15.128906 27.996094 15.222656 27.902344 15.222656 27.789062 C 15.222656 27.675781 15.128906 27.585938 15.015625 27.585938 " fill-opacity="1" fill-rule="nonzero"/><path fill="#73d1de" d="M 20.84375 22.488281 C 20.566406 22.488281 20.34375 22.710938 20.34375 22.984375 C 20.34375 23.253906 20.5625 23.472656 20.835938 23.476562 L 20.851562 23.464844 L 20.871094 23.324219 C 20.863281 23.328125 20.855469 23.328125 20.84375 23.328125 C 20.652344 23.328125 20.496094 23.171875 20.496094 22.984375 C 20.496094 22.792969 20.652344 22.640625 20.84375 22.640625 C 20.890625 22.640625 20.9375 22.648438 20.976562 22.664062 L 21 22.515625 C 20.953125 22.5 20.898438 22.488281 20.84375 22.488281 " fill-opacity="1" fill-rule="nonzero"/><path fill="#5bb4e0" d="M 21 22.515625 L 20.976562 22.664062 C 21.105469 22.71875 21.191406 22.839844 21.191406 22.984375 C 21.191406 23.164062 21.050781 23.3125 20.871094 23.324219 L 20.851562 23.464844 L 20.835938 23.476562 C 20.839844 23.476562 20.839844 23.476562 20.84375 23.476562 C 21.121094 23.476562 21.347656 23.257812 21.347656 22.984375 C 21.347656 22.765625 21.199219 22.578125 21 22.515625 " fill-opacity="1" fill-rule="nonzero"/><path fill="#83d5d4" d="M 20.84375 22.640625 C 20.652344 22.640625 20.496094 22.792969 20.496094 22.984375 C 20.496094 23.171875 20.652344 23.328125 20.84375 23.328125 C 20.855469 23.328125 20.863281 23.328125 20.871094 23.324219 L 20.894531 23.179688 C 20.878906 23.1875 20.863281 23.1875 20.84375 23.1875 C 20.730469 23.1875 20.636719 23.097656 20.636719 22.984375 C 20.636719 22.871094 20.730469 22.777344 20.84375 22.777344 C 20.886719 22.777344 20.921875 22.789062 20.953125 22.808594 L 20.976562 22.664062 C 20.9375 22.648438 20.890625 22.640625 20.84375 22.640625 " fill-opacity="1" fill-rule="nonzero"/><path fill="#6bcfe4" d="M 20.976562 22.664062 L 20.953125 22.808594 C 21.011719 22.847656 21.050781 22.910156 21.050781 22.984375 C 21.050781 23.078125 20.984375 23.160156 20.894531 23.179688 L 20.871094 23.324219 C 21.050781 23.3125 21.191406 23.164062 21.191406 22.984375 C 21.191406 22.839844 21.105469 22.71875 20.976562 22.664062 " fill-opacity="1" fill-rule="nonzero"/><path fill="#e7f7fa" d="M 20.84375 22.777344 C 20.730469 22.777344 20.636719 22.871094 20.636719 22.984375 C 20.636719 23.097656 20.730469 23.1875 20.84375 23.1875 C 20.863281 23.1875 20.878906 23.1875 20.894531 23.179688 L 20.953125 22.808594 C 20.921875 22.789062 20.886719 22.777344 20.84375 22.777344 " fill-opacity="1" fill-rule="nonzero"/><path fill="#e2f6fd" d="M 20.953125 22.808594 L 20.894531 23.179688 C 20.984375 23.160156 21.050781 23.078125 21.050781 22.984375 C 21.050781 22.910156 21.011719 22.847656 20.953125 22.808594 " fill-opacity="1" fill-rule="nonzero"/><path fill="#5bb4e0" d="M 7.605469 8.71875 C 7.332031 8.71875 7.105469 8.941406 7.105469 9.214844 C 7.105469 9.410156 7.21875 9.578125 7.386719 9.65625 L 7.535156 9.550781 C 7.378906 9.519531 7.257812 9.378906 7.257812 9.214844 C 7.257812 9.023438 7.414062 8.871094 7.605469 8.871094 C 7.800781 8.871094 7.957031 9.023438 7.957031 9.214844 C 7.957031 9.226562 7.957031 9.238281 7.953125 9.25 L 8.101562 9.144531 C 8.070312 8.90625 7.859375 8.71875 7.605469 8.71875 " fill-opacity="1" fill-rule="nonzero"/><path fill="#236c75" d="M 8.101562 9.144531 L 7.953125 9.25 C 7.933594 9.421875 7.785156 9.558594 7.605469 9.558594 C 7.582031 9.558594 7.558594 9.554688 7.535156 9.550781 L 7.386719 9.65625 C 7.453125 9.691406 7.527344 9.707031 7.605469 9.707031 C 7.882812 9.707031 8.109375 9.488281 8.109375 9.214844 C 8.109375 9.191406 8.105469 9.167969 8.101562 9.144531 " fill-opacity="1" fill-rule="nonzero"/><path fill="#6bcfe4" d="M 7.605469 8.871094 C 7.414062 8.871094 7.257812 9.023438 7.257812 9.214844 C 7.257812 9.378906 7.378906 9.519531 7.535156 9.550781 L 7.953125 9.25 C 7.957031 9.238281 7.957031 9.226562 7.957031 9.214844 C 7.957031 9.023438 7.800781 8.871094 7.605469 8.871094 M 7.605469 9.417969 C 7.492188 9.417969 7.398438 9.328125 7.398438 9.214844 C 7.398438 9.101562 7.492188 9.007812 7.605469 9.007812 C 7.722656 9.007812 7.816406 9.101562 7.816406 9.214844 C 7.816406 9.328125 7.722656 9.417969 7.605469 9.417969 " fill-opacity="1" fill-rule="nonzero"/><path fill="#35ba9d" d="M 7.953125 9.25 L 7.535156 9.550781 C 7.558594 9.554688 7.582031 9.558594 7.605469 9.558594 C 7.785156 9.558594 7.933594 9.421875 7.953125 9.25 " fill-opacity="1" fill-rule="nonzero"/><path fill="#e2f6fd" d="M 7.605469 9.007812 C 7.492188 9.007812 7.398438 9.101562 7.398438 9.214844 C 7.398438 9.328125 7.492188 9.417969 7.605469 9.417969 C 7.722656 9.417969 7.816406 9.328125 7.816406 9.214844 C 7.816406 9.101562 7.722656 9.007812 7.605469 9.007812 " fill-opacity="1" fill-rule="nonzero"/><path fill="#73d1de" d="M 13.332031 13.519531 L 13.210938 13.667969 C 13.214844 13.679688 13.214844 13.691406 13.214844 13.699219 C 13.214844 13.875 13.082031 14.019531 12.910156 14.039062 L 12.792969 14.1875 C 12.816406 14.191406 12.839844 14.195312 12.867188 14.195312 C 13.140625 14.195312 13.367188 13.972656 13.367188 13.699219 C 13.367188 13.636719 13.355469 13.578125 13.332031 13.519531 " fill-opacity="1" fill-rule="nonzero"/><path fill="#5bb4e0" d="M 12.867188 13.207031 C 12.648438 13.207031 12.464844 13.339844 12.394531 13.53125 L 12.582031 13.5 C 12.648438 13.414062 12.75 13.355469 12.867188 13.355469 C 13.046875 13.355469 13.195312 13.492188 13.210938 13.667969 L 13.332031 13.519531 C 13.261719 13.335938 13.078125 13.207031 12.867188 13.207031 M 12.5625 13.867188 L 12.453125 13.980469 C 12.53125 14.089844 12.652344 14.167969 12.792969 14.1875 L 12.910156 14.039062 C 12.894531 14.042969 12.882812 14.042969 12.867188 14.042969 C 12.734375 14.042969 12.621094 13.972656 12.5625 13.867188 " fill-opacity="1" fill-rule="nonzero"/><path fill="#73d1de" d="M 12.582031 13.5 L 12.394531 13.53125 C 12.375 13.582031 12.363281 13.640625 12.363281 13.699219 C 12.363281 13.804688 12.398438 13.898438 12.453125 13.980469 L 12.5625 13.867188 C 12.53125 13.816406 12.515625 13.761719 12.515625 13.699219 C 12.515625 13.625 12.542969 13.554688 12.582031 13.5 " fill-opacity="1" fill-rule="nonzero"/><path fill="#83d5d4" d="M 13.210938 13.667969 L 12.910156 14.039062 C 13.082031 14.019531 13.214844 13.875 13.214844 13.699219 C 13.214844 13.691406 13.214844 13.679688 13.210938 13.667969 " fill-opacity="1" fill-rule="nonzero"/><path fill="#6bcfe4" d="M 12.867188 13.355469 C 12.75 13.355469 12.648438 13.414062 12.582031 13.5 L 12.984375 13.429688 L 12.914062 13.5 C 13.003906 13.523438 13.074219 13.605469 13.074219 13.699219 C 13.074219 13.8125 12.980469 13.90625 12.867188 13.90625 C 12.773438 13.90625 12.691406 13.84375 12.667969 13.757812 L 12.5625 13.867188 C 12.621094 13.972656 12.734375 14.042969 12.867188 14.042969 C 12.882812 14.042969 12.894531 14.042969 12.910156 14.039062 L 13.210938 13.667969 C 13.195312 13.492188 13.046875 13.355469 12.867188 13.355469 " fill-opacity="1" fill-rule="nonzero"/><path fill="#83d5d4" d="M 12.984375 13.429688 L 12.582031 13.5 C 12.542969 13.554688 12.515625 13.625 12.515625 13.699219 C 12.515625 13.761719 12.53125 13.816406 12.5625 13.867188 L 12.667969 13.757812 C 12.660156 13.738281 12.660156 13.71875 12.660156 13.699219 C 12.660156 13.585938 12.75 13.496094 12.867188 13.496094 C 12.882812 13.496094 12.898438 13.496094 12.914062 13.5 L 12.984375 13.429688 " fill-opacity="1" fill-rule="nonzero"/><path fill="#e2f6fd" d="M 12.914062 13.5 L 12.667969 13.757812 C 12.691406 13.84375 12.773438 13.90625 12.867188 13.90625 C 12.980469 13.90625 13.074219 13.8125 13.074219 13.699219 C 13.074219 13.605469 13.003906 13.523438 12.914062 13.5 " fill-opacity="1" fill-rule="nonzero"/><path fill="#e7f7fa" d="M 12.867188 13.496094 C 12.75 13.496094 12.660156 13.585938 12.660156 13.699219 C 12.660156 13.71875 12.660156 13.738281 12.667969 13.757812 L 12.914062 13.5 C 12.898438 13.496094 12.882812 13.496094 12.867188 13.496094 " fill-opacity="1" fill-rule="nonzero"/><path fill="#9adee8" d="M 17.460938 3.746094 C 17.1875 3.746094 16.960938 3.964844 16.960938 4.238281 C 16.960938 4.511719 17.1875 4.734375 17.460938 4.734375 C 17.738281 4.734375 17.964844 4.511719 17.964844 4.238281 C 17.964844 3.964844 17.738281 3.746094 17.460938 3.746094 M 17.460938 4.582031 C 17.269531 4.582031 17.113281 4.429688 17.113281 4.238281 C 17.113281 4.050781 17.269531 3.894531 17.460938 3.894531 C 17.65625 3.894531 17.8125 4.050781 17.8125 4.238281 C 17.8125 4.429688 17.65625 4.582031 17.460938 4.582031 " fill-opacity="1" fill-rule="nonzero"/><path fill="#a6e1de" d="M 17.460938 3.894531 C 17.269531 3.894531 17.113281 4.050781 17.113281 4.238281 C 17.113281 4.429688 17.269531 4.582031 17.460938 4.582031 C 17.65625 4.582031 17.8125 4.429688 17.8125 4.238281 C 17.8125 4.050781 17.65625 3.894531 17.460938 3.894531 M 17.460938 4.441406 C 17.347656 4.441406 17.253906 4.351562 17.253906 4.238281 C 17.253906 4.125 17.347656 4.035156 17.460938 4.035156 C 17.578125 4.035156 17.671875 4.125 17.671875 4.238281 C 17.671875 4.351562 17.578125 4.441406 17.460938 4.441406 " fill-opacity="1" fill-rule="nonzero"/><path fill="#eef9fd" d="M 17.464844 4.035156 C 17.347656 4.035156 17.253906 4.125 17.253906 4.238281 C 17.253906 4.351562 17.347656 4.441406 17.464844 4.441406 C 17.578125 4.441406 17.671875 4.351562 17.671875 4.238281 C 17.671875 4.125 17.578125 4.035156 17.464844 4.035156 " fill-opacity="1" fill-rule="nonzero"/><path fill="#9adee8" d="M 14.191406 8.226562 C 13.914062 8.226562 13.691406 8.449219 13.691406 8.71875 C 13.691406 8.992188 13.914062 9.214844 14.191406 9.214844 C 14.46875 9.214844 14.691406 8.992188 14.691406 8.71875 C 14.691406 8.449219 14.46875 8.226562 14.191406 8.226562 M 14.191406 9.0625 C 14 9.0625 13.84375 8.910156 13.84375 8.71875 C 13.84375 8.53125 14 8.375 14.191406 8.375 C 14.382812 8.375 14.539062 8.53125 14.539062 8.71875 C 14.539062 8.910156 14.382812 9.0625 14.191406 9.0625 " fill-opacity="1" fill-rule="nonzero"/><path fill="#a6e1de" d="M 14.191406 8.375 C 14 8.375 13.84375 8.53125 13.84375 8.71875 C 13.84375 8.910156 14 9.0625 14.191406 9.0625 C 14.382812 9.0625 14.539062 8.910156 14.539062 8.71875 C 14.539062 8.53125 14.382812 8.375 14.191406 8.375 M 14.191406 8.925781 C 14.078125 8.925781 13.984375 8.832031 13.984375 8.71875 C 13.984375 8.605469 14.078125 8.515625 14.191406 8.515625 C 14.304688 8.515625 14.398438 8.605469 14.398438 8.71875 C 14.398438 8.832031 14.304688 8.925781 14.191406 8.925781 " fill-opacity="1" fill-rule="nonzero"/><path fill="#eef9fd" d="M 14.191406 8.515625 C 14.078125 8.515625 13.984375 8.605469 13.984375 8.71875 C 13.984375 8.832031 14.078125 8.925781 14.191406 8.925781 C 14.304688 8.925781 14.398438 8.832031 14.398438 8.71875 C 14.398438 8.605469 14.304688 8.515625 14.191406 8.515625 " fill-opacity="1" fill-rule="nonzero"/><path fill="#ffffff" d="M 22.210938 2.414062 L 17.460938 4.199219 L 10.34375 2.539062 L 14.125 8.6875 L 7.5625 9.179688 L 9.386719 18.164062 L 15.925781 22.273438 L 9.839844 24.0625 L 15.015625 27.9375 L 20.890625 22.988281 L 21.59375 16.519531 L 20.460938 11.5625 L 20.386719 11.582031 L 21.515625 16.523438 L 20.820312 22.949219 L 15.015625 27.839844 L 10.007812 24.089844 L 16.109375 22.296875 L 9.457031 18.117188 L 7.652344 9.25 L 14.257812 8.753906 L 10.503906 2.65625 L 17.464844 4.277344 L 22.238281 2.484375 L 22.210938 2.414062 " fill-opacity="1" fill-rule="nonzero"/><path fill="#ffffff" d="M 17.429688 4.214844 L 14.160156 8.699219 L 14.222656 8.742188 L 17.496094 4.261719 " fill-opacity="1" fill-rule="nonzero"/><path fill="#ffffff" d="M 12.851562 13.734375 L 21.355469 16.648438 L 21.378906 16.574219 L 12.878906 13.664062 " fill-opacity="1" fill-rule="nonzero"/><path fill="#ffffff" d="M 9.382812 18.140625 L 9.886719 24.078125 L 9.960938 24.074219 L 9.460938 18.136719 " fill-opacity="1" fill-rule="nonzero"/><path fill="#ffffff" d="M 15.980469 22.359375 L 14.976562 27.785156 L 15.054688 27.796875 L 16.054688 22.371094 " fill-opacity="1" fill-rule="nonzero"/><path fill="#ffffff" d="M 21.4375 16.496094 L 15.988281 22.257812 L 16.046875 22.3125 L 21.496094 16.546875 " fill-opacity="1" fill-rule="nonzero"/><path fill="#ffffff" d="M 12.75 13.785156 L 15.980469 22.296875 L 16.054688 22.273438 L 12.824219 13.757812 " fill-opacity="1" fill-rule="nonzero"/><path fill="#ffffff" d="M 9.453125 18.164062 L 12.894531 13.722656 L 12.835938 13.675781 L 9.390625 18.117188 " fill-opacity="1" fill-rule="nonzero"/><path fill="#ffffff" d="M 14.175781 8.753906 L 20.40625 11.605469 L 20.4375 11.539062 L 14.207031 8.6875 " fill-opacity="1" fill-rule="nonzero"/><path fill="#ffffff" d="M 7.582031 9.242188 L 12.761719 13.730469 L 12.8125 13.671875 L 7.632812 9.183594 " fill-opacity="1" fill-rule="nonzero"/><path fill="#ffffff" d="M 10.390625 2.582031 L 7.570312 9.199219 L 7.644531 9.230469 L 10.460938 2.613281 " fill-opacity="1" fill-rule="nonzero"/><path fill="#ffffff" d="M 17.503906 4.292969 L 20.3125 11.605469 L 20.382812 11.578125 L 17.578125 4.269531 " fill-opacity="1" fill-rule="nonzero"/><path fill="#ffffff" d="M 22.1875 2.441406 L 20.308594 11.585938 L 20.386719 11.601562 L 22.261719 2.457031 " fill-opacity="1" fill-rule="nonzero"/><path fill="#ffffff" d="M 12.796875 13.738281 L 20.359375 11.628906 L 20.335938 11.558594 L 12.777344 13.664062 " fill-opacity="1" fill-rule="nonzero"/><path fill="#ffffff" d="M 14.152344 8.710938 L 12.828125 13.691406 L 12.902344 13.710938 L 14.226562 8.730469 " fill-opacity="1" fill-rule="nonzero"/><path fill="#ffffff" d="M 16.011719 22.402344 L 20.765625 23.019531 L 20.777344 22.945312 L 16.023438 22.328125 " fill-opacity="1" fill-rule="nonzero"/></svg>